<svg width="58" height="58" viewBox="0 0 58 58" fill="none" xmlns="http://www.w3.org/2000/svg">
<path d="M35.2767 27.5883L32.71 25.0217C32.3833 24.695 32.29 24.24 32.4183 23.8317C32.85 22.525 33.0833 21.125 33.0833 19.6667C33.0833 19.025 33.6083 18.5 34.25 18.5H38.3333C38.975 18.5 39.5 19.025 39.5 19.6667C39.5 30.6217 30.6217 39.5 19.6667 39.5C19.025 39.5 18.5 38.975 18.5 38.3333V34.2617C18.5 33.62 19.025 33.095 19.6667 33.095C21.1133 33.095 22.525 32.8617 23.8317 32.43C24.24 32.29 24.7067 32.395 25.0217 32.71L27.5883 35.2767C30.89 33.585 33.5967 30.89 35.2767 27.5883Z" fill="white"/>
<rect x="0.5" y="0.5" width="57" height="57" rx="28.5" stroke="white"/>
</svg>
