<svg width="83" height="83" viewBox="0 0 83 83" fill="none" xmlns="http://www.w3.org/2000/svg">
<g filter="url(#filter0_d_82_2342)">
<circle cx="36.0088" cy="36.0088" r="21" transform="rotate(-179.976 36.0088 36.0088)" fill="white"/>
</g>
<path d="M38.0116 29.0094C38.2452 29.009 38.4716 29.0905 38.6515 29.2397C38.7527 29.3237 38.8364 29.4268 38.8977 29.5432C38.959 29.6595 38.9967 29.7869 39.0087 29.9179C39.0207 30.0488 39.0068 30.1809 38.9677 30.3065C38.9286 30.4321 38.8651 30.5487 38.7809 30.6497L34.2986 36.0078L38.6164 41.3797C38.6994 41.482 38.7614 41.5997 38.7988 41.7261C38.8361 41.8524 38.8482 41.9849 38.8342 42.1159C38.8202 42.247 38.7804 42.3739 38.7172 42.4895C38.654 42.6051 38.5686 42.7071 38.4658 42.7896C38.3623 42.8806 38.2411 42.9492 38.1098 42.9911C37.9785 43.0331 37.84 43.0474 37.7029 43.0333C37.5658 43.0191 37.4331 42.9768 37.3132 42.909C37.1932 42.8411 37.0886 42.7492 37.0059 42.639L32.1784 36.637C32.0314 36.458 31.9511 36.2335 31.9511 36.0019C31.9512 35.7702 32.0317 35.5458 32.1789 35.367L37.1814 29.3691C37.2818 29.2481 37.4093 29.1525 37.5535 29.09C37.6977 29.0275 37.8547 28.9999 38.0116 29.0094Z" fill="#222325"/>
<defs>
<filter id="filter0_d_82_2342" x="0.00878906" y="0.00878906" width="82" height="82" filterUnits="userSpaceOnUse" color-interpolation-filters="sRGB">
<feFlood flood-opacity="0" result="BackgroundImageFix"/>
<feColorMatrix in="SourceAlpha" type="matrix" values="0 0 0 0 0 0 0 0 0 0 0 0 0 0 0 0 0 0 127 0" result="hardAlpha"/>
<feOffset dx="5" dy="5"/>
<feGaussianBlur stdDeviation="10"/>
<feColorMatrix type="matrix" values="0 0 0 0 0 0 0 0 0 0 0 0 0 0 0 0 0 0 0.17 0"/>
<feBlend mode="normal" in2="BackgroundImageFix" result="effect1_dropShadow_82_2342"/>
<feBlend mode="normal" in="SourceGraphic" in2="effect1_dropShadow_82_2342" result="shape"/>
</filter>
</defs>
</svg>
